<?xml version="1.0" encoding="UTF-8" standalone="no"?>
<svg
   width="16"
   height="16"
   fill="currentColor"
   class="bi bi-linkedin"
   viewBox="0 0 16 16"
   version="1.1"
   id="svg1"
   sodipodi:docname="linkedin.svg"
   inkscape:version="1.3.2 (091e20e, 2023-11-25, custom)"
   xmlns:inkscape="http://www.inkscape.org/namespaces/inkscape"
   xmlns:sodipodi="http://sodipodi.sourceforge.net/DTD/sodipodi-0.dtd"
   xmlns="http://www.w3.org/2000/svg"
   xmlns:svg="http://www.w3.org/2000/svg">
  <defs
     id="defs1" />
  <sodipodi:namedview
     id="namedview1"
     pagecolor="#505050"
     bordercolor="#eeeeee"
     borderopacity="1"
     inkscape:showpageshadow="0"
     inkscape:pageopacity="0"
     inkscape:pagecheckerboard="0"
     inkscape:deskcolor="#505050"
     inkscape:zoom="22.627417"
     inkscape:cx="11.932427"
     inkscape:cy="5.2370096"
     inkscape:window-width="1366"
     inkscape:window-height="745"
     inkscape:window-x="-8"
     inkscape:window-y="-8"
     inkscape:window-maximized="1"
     inkscape:current-layer="svg1" />
  <path
     d="m -0.5202178,0.6312095 c 0,-0.31904233 0.12596309,-0.60949591 0.33227172,-0.82710452 0.23015565,-0.24276179 0.56030454,-0.39486526 0.92711158,-0.39486526 H 15.369447 c 0.695608,0 1.259384,0.54700742 1.259384,1.22196978 V 15.24793 c 0,0.674962 -0.563776,1.221969 -1.259384,1.221969 H 0.7391655 c -0.69560833,0 -1.2593833,-0.547007 -1.2593833,-1.221969 z M 4.7777664,13.691144 V 5.9871905 H 2.2043373 V 13.691144 Z M 3.4915877,4.934761 c 0.8971097,0 1.4555256,-0.5907253 1.4555256,-1.3307314 C 4.9310361,2.848029 4.3897692,2.273298 3.5087369,2.273298 c -0.8810324,0 -1.4565974,0.5757973 -1.4565974,1.3307316 0,0.7400061 0.558416,1.3307314 1.4222992,1.3307314 z m 5.2604707,8.756383 V 9.3886591 c 0,-0.2303189 0.017148,-0.4606378 0.085744,-0.6248461 0.1854241,-0.4595716 0.6087913,-0.9362037 1.3204766,-0.9362037 0.931408,0 1.303328,0.7058848 1.303328,1.7423194 v 4.1212153 h 2.573428 V 9.2724334 c 0,-2.3671661 -1.269029,-3.4675786 -2.962498,-3.4675786 -1.3654922,0 -1.9774988,0.7464038 -2.3204793,1.2720854 v 0.026658 h -0.017149 l 0.017149,-0.026658 V 5.9871905 H 6.1797006 c 0.032155,0.7229455 0,7.7039535 0,7.7039535 z"
     id="path1"
     sodipodi:nodetypes="sssssssssscccccscsssscscssccsscccccccc"
     style="fill:#000000;fill-opacity:1;stroke-width:1.06905" />
</svg>
