<svg xmlns="http://www.w3.org/2000/svg" xmlns:xlink="http://www.w3.org/1999/xlink" xmlns:lucid="lucid" width="1135.4" height="701"><g transform="translate(-26.922944756512834 -879.5)" lucid:page-tab-id="0_0"><path d="M1010 900c16.57 0 30 13.43 30 30s-13.43 30-30 30H590c-16.57 0-30-13.43-30-30s13.43-30 30-30z" stroke="#333" fill="#fff"/><use xlink:href="#a" transform="matrix(1,0,0,1,565,905) translate(153.98681640625 30.6103515625)"/><use xlink:href="#b" transform="matrix(1,0,0,1,565,905) translate(229.59912109375 30.6103515625)"/><path d="M458.18 1028a8 8 0 0 1 8-8h147.9c24.35 0 44.1 19.74 44.1 44.1 0 24.36-19.75 44.1-44.1 44.1h-147.9a8 8 0 0 1-8-8z" stroke="#333" fill="#fff"/><use xlink:href="#c" transform="matrix(1,0,0,1,463.17639378998547,1025) translate(7.152940538194429 24.8603515625)"/><use xlink:href="#d" transform="matrix(1,0,0,1,463.17639378998547,1025) translate(115.70393880208334 24.8603515625)"/><use xlink:href="#e" transform="matrix(1,0,0,1,463.17639378998547,1025) translate(89.59912109375 45.2509765625)"/><use xlink:href="#f" transform="matrix(1,0,0,1,463.17639378998547,1025) translate(52.69384765625 65.6416015625)"/><path d="M700 1188a8 8 0 0 1 8-8h184a8 8 0 0 1 8 8v48.78a8 8 0 0 1-8 8H708a8 8 0 0 1-8-8z" stroke="#333" fill="#fff"/><use xlink:href="#g" transform="matrix(1,0,0,1,712,1192) translate(28.59033203125 25.2353515625)"/><use xlink:href="#h" transform="matrix(1,0,0,1,712,1192) translate(115.00439453125 25.2353515625)"/><path d="M240 1188a8 8 0 0 1 8-8h159.6c17.9 0 32.4 14.5 32.4 32.4 0 17.88-14.5 32.38-32.4 32.38H248a8 8 0 0 1-8-8z" stroke="#333" fill="#fff"/><use xlink:href="#i" transform="matrix(1,0,0,1,245,1185) translate(57.19384765625 32.1728515625)"/><path d="M558.18 1109.2v22.9a12 12 0 0 0 12 12H788a12 12 0 0 1 12 12v7.02" stroke="#333" fill="none"/><path d="M558.65 1109.2h-.95v-.5h.95z" stroke="#333" stroke-width=".05" fill="#333"/><path d="M800 1177.88l-4.63-14.26h9.26z" stroke="#333" fill="#333"/><path d="M440 1148a8 8 0 0 1 8-8h64a8 8 0 0 1 8 8v5.2a8 8 0 0 1-8 8h-64a8 8 0 0 1-8-8z" stroke="#000" stroke-opacity="0" fill="#fff" fill-opacity="0"/><use xlink:href="#j" transform="matrix(1,0,0,1,445,1145) translate(18.73068576388889 11.285264756944445)"/><path d="M558.18 1109.2v22.9a12 12 0 0 1-12 12H404.03a12 12 0 0 0-12 12v7.02" stroke="#333" fill="none"/><path d="M558.65 1109.2h-.95v-.5h.95z" stroke="#333" stroke-width=".05" fill="#333"/><path d="M392.03 1177.88l-4.64-14.26h9.26z" stroke="#333" fill="#333"/><path d="M700 1308a8 8 0 0 1 8-8h159.6c17.9 0 32.4 14.5 32.4 32.4 0 17.88-14.5 32.38-32.4 32.38H708a8 8 0 0 1-8-8z" stroke="#333" fill="#fff"/><use xlink:href="#k" transform="matrix(1,0,0,1,705,1305) translate(56.19384765625 21.8603515625)"/><use xlink:href="#l" transform="matrix(1,0,0,1,705,1305) translate(39.9912109375 42.2509765625)"/><path d="M625.8 1300c17.88 0 32.38 14.5 32.38 32.4 0 17.88-14.5 32.38-32.4 32.38H490.6c-17.9 0-32.4-14.5-32.4-32.4 0-17.88 14.5-32.38 32.4-32.38z" stroke="#333" fill="#fff"/><use xlink:href="#m" transform="matrix(1,0,0,1,463.17639378998547,1305) translate(19.392695312500003 21.8603515625)"/><use xlink:href="#n" transform="matrix(1,0,0,1,463.17639378998547,1305) translate(35.595332031249995 42.2509765625)"/><use xlink:href="#o" transform="matrix(1,0,0,1,463.17639378998547,1305) translate(111.20763671875 42.2509765625)"/><path d="M1109.43 1300c17.9 0 32.4 14.5 32.4 32.4 0 17.88-14.5 32.38-32.4 32.38H974.2c-17.88 0-32.38-14.5-32.38-32.4 0-17.88 14.5-32.38 32.4-32.38z" stroke="#333" fill="#fff"/><use xlink:href="#p" transform="matrix(1,0,0,1,946.8236062100145,1305) translate(46.39208984375 32.1728515625)"/><use xlink:href="#q" transform="matrix(1,0,0,1,946.8236062100145,1305) translate(100.40087890625 32.1728515625)"/><path d="M800 1245.78v37.34" stroke="#333" fill="none"/><path d="M800.48 1245.8h-.96v-.52h.96z" stroke="#333" stroke-width=".05" fill="#333"/><path d="M800 1297.88l-4.63-14.26h9.26z" stroke="#333" fill="#333"/><path d="M659.18 1332.4h23.94" stroke="#333" fill="none"/><path d="M659.2 1332.87h-.56l.04-.46v-.48h.5z" stroke="#333" stroke-width=".05" fill="#333"/><path d="M697.88 1332.4l-14.26 4.63v-9.27z" stroke="#333" fill="#333"/><path d="M940.82 1332.4h-23.94" stroke="#333" fill="none"/><path d="M941.32 1332.38v.5h-.5v-.96h.54z" stroke="#333" stroke-width=".05" fill="#333"/><path d="M902.12 1332.4l14.26-4.64v9.27z" stroke="#333" fill="#333"/><path d="M264.85 900c16.56 0 30 13.43 30 30s-13.44 30-30 30H130c-16.57 0-30-13.43-30-30s13.43-30 30-30z" stroke="#333" fill="#fff"/><use xlink:href="#r" transform="matrix(1,0,0,1,105,905) translate(65.49560546875 30.6103515625)"/><use xlink:href="#s" transform="matrix(1,0,0,1,105,905) translate(76.29736328125 30.6103515625)"/><path d="M800 961v17a12 12 0 0 1-12 12H573a12 12 0 0 0-12 12v1.12" stroke="#333" fill="none"/><path d="M800.48 961h-.96v-.5h.96z" stroke="#333" stroke-width=".05" fill="#333"/><path d="M561 1017.88l-4.63-14.26h9.26z" stroke="#333" fill="#333"/><path d="M197.42 961v17a12 12 0 0 0 12 12h336.76a12 12 0 0 1 12 12v1.12" stroke="#333" fill="none"/><path d="M197.9 961h-.95v-.5h.95z" stroke="#333" stroke-width=".05" fill="#333"/><path d="M558.18 1017.88l-4.64-14.26h9.27z" stroke="#333" fill="#333"/><path d="M315.03 1300c17.9 0 32.4 14.5 32.4 32.4 0 17.88-14.5 32.38-32.4 32.38H79.8c-17.88 0-32.38-14.5-32.38-32.4 0-17.88 14.5-32.38 32.4-32.38z" stroke="#333" fill="#fff"/><use xlink:href="#t" transform="matrix(1,0,0,1,52.422944756512834,1305) translate(47.7841796875 32.1728515625)"/><use xlink:href="#u" transform="matrix(1,0,0,1,52.422944756512834,1305) translate(166.603515625 32.1728515625)"/><path d="M197.42 961v322.12" stroke="#333" fill="none"/><path d="M197.9 961h-.95v-.5h.95z" stroke="#333" stroke-width=".05" fill="#333"/><path d="M197.42 1297.88l-4.63-14.27 9.26.02z" stroke="#333" fill="#333"/><path d="M340 1245.78v14.6a12 12 0 0 1-12 12H208.15a10.72 10.72 0 0 0-10.73 10.74" stroke="#333" fill="none"/><path d="M340.48 1245.8h-.96v-.52h.96z" stroke="#333" stroke-width=".05" fill="#333"/><path d="M197.42 1297.88l-4.63-14.26h9.26z" stroke="#333" fill="#333"/><path d="M457.18 1332.4H364.3" stroke="#333" fill="none"/><path d="M457.68 1332.38v.5h-.52v-.96h.55z" stroke="#333" stroke-width=".05" fill="#333"/><path d="M349.54 1332.4l14.27-4.64v9.27z" stroke="#333" fill="#333"/><path d="M559 930H342a12 12 0 0 0-12 12v221.12" stroke="#333" fill="none"/><path d="M559.5 930l.02.48H559v-.96h.54z" stroke="#333" stroke-width=".05" fill="#333"/><path d="M330 1177.88l-4.64-14.26h9.27z" stroke="#333" fill="#333"/><path d="M620 1550c0 5.52-36.23 10-80.9 10-44.7 0-80.92-4.48-80.92-10v-80c0-5.52 36.22-10 80.9-10 44.7 0 80.92 4.48 80.92 10z" stroke="#333" fill="#fff"/><path d="M620 1470c0 5.52-36.23 10-80.9 10-44.7 0-80.92-4.48-80.92-10" stroke="#333" fill="none"/><g><use xlink:href="#v" transform="matrix(1,0,0,1,463.17639378998547,1485) translate(32.79296875 39.0478515625)"/></g><path d="M197.42 1365.78v34.6a12 12 0 0 0 12 12H527.1a12 12 0 0 1 12 12v18.74" stroke="#333" fill="none"/><path d="M197.9 1365.8h-.95v-.52h.95z" stroke="#333" stroke-width=".05" fill="#333"/><path d="M539.1 1457.88l-4.65-14.26h9.27z" stroke="#333" fill="#333"/><path d="M800 1365.78v34.6a12 12 0 0 1-12 12H551.1a12 12 0 0 0-12 12v18.74" stroke="#333" fill="none"/><path d="M800.48 1365.8h-.96v-.52h.96z" stroke="#333" stroke-width=".05" fill="#333"/><path d="M539.1 1457.88l-4.65-14.26h9.27z" stroke="#333" fill="#333"/><defs><path fill="#333" d="M285-1169c8 382 2 780 4 1169H129v-1349h237c86 239 188 461 253 720 69-258 169-481 255-720h225V0H937c2-390-5-788 6-1169-75 255-170 488-259 729H547c-90-240-185-475-262-729" id="w"/><path fill="#333" d="M1000-272c3 95 12 159 101 161 21 0 41-3 59-7V-6c-44 10-86 16-139 16-141 2-191-84-197-217h-6C748-76 648 20 446 20c-207 0-318-120-318-322 0-266 194-348 454-354l236-4c12-191-40-305-222-305-140 0-220 47-232 172l-188-17c33-204 181-292 423-292 255 0 401 118 401 364v466zm-683-27c0 109 63 184 175 182 166-3 259-96 306-217 24-65 20-120 20-200-232 7-501-28-501 235" id="x"/><path fill="#333" d="M873-819c-18-114-119-146-250-146-163 0-245 50-245 151 0 151 170 148 294 185 182 54 388 94 388 320 0 240-189 325-439 329-245 4-410-69-454-268l159-31c24 133 136 168 295 165 144-2 270-31 270-171 0-164-195-160-331-202-167-52-350-87-350-299 0-218 173-315 413-313 220 2 373 77 412 260" id="y"/><path fill="#333" d="M682 16c-209 0-323-80-324-285v-671H190v-142h170l58-282h120v282h432v142H538v652c2 114 60 155 182 155 106 0 209-16 297-34v137C921-4 806 16 682 16" id="z"/><path fill="#333" d="M617-1102c355 0 481 238 477 599H322c5 222 84 388 301 388 144 0 244-59 284-166l158 45C1002-72 854 20 623 20c-342 0-490-220-490-568 0-346 151-554 484-554zm291 461c-18-192-90-328-289-328-194 0-287 128-295 328h584" id="A"/><path fill="#333" d="M839-1102c70 0 148 7 206 17v167c-112-18-268-36-363 15-129 69-208 203-208 395V0H294c-10-367 32-789-52-1082h171c21 75 41 161 48 250h5c67-152 152-270 373-270" id="B"/><g id="a"><use transform="matrix(0.0087890625,0,0,0.0087890625,0,0)" xlink:href="#w"/><use transform="matrix(0.0087890625,0,0,0.0087890625,10.8017578125,0)" xlink:href="#x"/><use transform="matrix(0.0087890625,0,0,0.0087890625,21.603515625,0)" xlink:href="#y"/><use transform="matrix(0.0087890625,0,0,0.0087890625,32.4052734375,0)" xlink:href="#z"/><use transform="matrix(0.0087890625,0,0,0.0087890625,43.20703125,0)" xlink:href="#A"/><use transform="matrix(0.0087890625,0,0,0.0087890625,54.0087890625,0)" xlink:href="#B"/></g><path fill="#333" d="M622-1349c296 4 497 117 497 404 0 282-193 424-485 431H353V0H162v-1349h460zm-15 684c195-3 320-88 320-277 0-184-129-255-328-254H353v531h254" id="C"/><path fill="#333" d="M1018 0H814c-67-224-138-444-200-673C552-442 476-224 407 0H204L21-1082h178c43 310 105 601 126 933 54-225 128-425 193-638h193c63 212 134 415 185 638 22-336 90-622 136-933h176" id="D"/><path fill="#333" d="M615-1102c343 0 484 203 482 560-1 347-147 562-488 562-336 0-475-219-479-562-4-349 156-560 485-560zm-8 989c240 0 301-180 301-429 0-245-55-427-290-427-236 0-299 181-299 427 0 243 61 429 288 429" id="E"/><path fill="#333" d="M865-914c-3-187-2-380-2-570h180v1261c0 76 1 155 6 223H877c-8-49-9-116-10-174h-5C801-44 708 26 530 26c-135 0-234-46-297-139s-95-232-95-419c0-377 131-566 392-566 176 0 271 63 335 184zm-286-51c-222 0-255 197-255 427 0 229 31 425 253 425 237 0 286-195 286-441 0-238-52-411-284-411" id="F"/><g id="b"><use transform="matrix(0.0087890625,0,0,0.0087890625,0,0)" xlink:href="#C"/><use transform="matrix(0.0087890625,0,0,0.0087890625,10.8017578125,0)" xlink:href="#x"/><use transform="matrix(0.0087890625,0,0,0.0087890625,21.603515625,0)" xlink:href="#y"/><use transform="matrix(0.0087890625,0,0,0.0087890625,32.4052734375,0)" xlink:href="#y"/><use transform="matrix(0.0087890625,0,0,0.0087890625,43.20703125,0)" xlink:href="#D"/><use transform="matrix(0.0087890625,0,0,0.0087890625,54.0087890625,0)" xlink:href="#E"/><use transform="matrix(0.0087890625,0,0,0.0087890625,64.810546875,0)" xlink:href="#B"/><use transform="matrix(0.0087890625,0,0,0.0087890625,75.6123046875,0)" xlink:href="#F"/></g><path fill="#333" d="M802-711c201 25 350 118 350 331C1152-95 921 0 634 0H162v-1349c401 9 908-74 908 327 0 184-111 275-268 311zm-224-69c174-2 300-51 300-218 0-163-124-198-302-198H353v416h225zM353-153c281-2 612 44 606-244-5-271-329-233-606-234v478" id="G"/><path fill="#333" d="M1003 0L516-638 353-469V0H162v-1349h191v673l572-673h225L646-777 1227 0h-224" id="H"/><path fill="#333" d="M473-1349c438-1 655 221 652 661C1122-268 945-8 532 0H162v-1349h311zm42 1193c308-4 416-205 418-532 2-330-131-509-459-505H353v1037h162" id="I"/><path fill="#333" d="M385-1193v494h676v158H385V0H194v-1349h891v156H385" id="J"/><path fill="#333" d="M611-1370c266 0 451 106 451 368 0 147-77 243-154 327-132 144-316 255-451 395-42 44-75 87-96 134h723V0H144v-117c124-264 387-411 582-603 73-72 151-147 151-271 0-161-104-231-266-231-163 0-249 90-268 238l-184-17c35-233 185-369 452-369" id="K"/><path fill="#333" d="M891-1484c-201 251-362 514-362 954 0 441 161 704 362 955H701C500 176 342-90 342-532c0-440 159-704 359-952h190" id="L"/><path fill="#333" d="M353-779c69-51 166-92 291-90 218 3 357 100 423 255 21 52 32 109 32 170 0 305-189 464-500 464-268 0-424-116-471-335l182-21c35 130 124 212 293 209 198-4 309-114 309-313 0-182-118-282-305-282-120 0-198 45-262 101H169l47-728h801v145H382" id="M"/><path fill="#333" d="M1065-1013c47 164 49 500-1 665C999-130 875 20 611 20c-377 0-484-300-487-695-2-245 41-425 141-551 77-98 191-144 352-144 261 0 386 140 448 357zM741-155c199-92 203-504 159-785-26-168-96-284-283-284-281 0-308 256-311 549-2 181 18 324 80 428 46 77 115 118 227 120 47 0 90-10 128-28" id="N"/><g id="c"><use transform="matrix(0.0087890625,0,0,0.0087890625,0,0)" xlink:href="#C"/><use transform="matrix(0.0087890625,0,0,0.0087890625,10.8017578125,0)" xlink:href="#G"/><use transform="matrix(0.0087890625,0,0,0.0087890625,21.603515625,0)" xlink:href="#H"/><use transform="matrix(0.0087890625,0,0,0.0087890625,32.4052734375,0)" xlink:href="#I"/><use transform="matrix(0.0087890625,0,0,0.0087890625,43.20703125,0)" xlink:href="#J"/><use transform="matrix(0.0087890625,0,0,0.0087890625,54.0087890625,0)" xlink:href="#K"/><use transform="matrix(0.004448784722222222,0,0,0.004448784722222222,64.810546875,0)" xlink:href="#L"/><use transform="matrix(0.004448784722222222,0,0,0.004448784722222222,70.27810329861111,0)" xlink:href="#K"/><use transform="matrix(0.004448784722222222,0,0,0.004448784722222222,75.74565972222223,0)" xlink:href="#M"/><use transform="matrix(0.004448784722222222,0,0,0.004448784722222222,81.21321614583334,0)" xlink:href="#N"/><use transform="matrix(0.004448784722222222,0,0,0.004448784722222222,86.68077256944447,0)" xlink:href="#N"/><use transform="matrix(0.004448784722222222,0,0,0.004448784722222222,92.14832899305557,0)" xlink:href="#N"/><use transform="matrix(0.004448784722222222,0,0,0.004448784722222222,97.61588541666669,0)" xlink:href="#N"/></g><path fill="#333" d="M745-142h380V0H143v-142h422v-798H246v-142h499v940zM545-1292v-192h200v192H545" id="O"/><path fill="#333" d="M706-1102c241 0 344 136 343 381V0H868v-695c1-168-57-273-220-268-190 6-283 138-283 336V0H185c-3-360 6-732-6-1082h170c4 54 7 126 8 185h3c63-121 164-204 346-205" id="P"/><path fill="#333" d="M528-1484c201 248 357 511 357 952 0 442-156 709-357 957H336C537 174 700-89 700-530c0-440-163-703-364-954h192" id="Q"/><g id="d"><use transform="matrix(0.004448784722222222,0,0,0.004448784722222222,0,0)" xlink:href="#O"/><use transform="matrix(0.004448784722222222,0,0,0.004448784722222222,5.467556423611111,0)" xlink:href="#z"/><use transform="matrix(0.004448784722222222,0,0,0.004448784722222222,10.935112847222221,0)" xlink:href="#A"/><use transform="matrix(0.004448784722222222,0,0,0.004448784722222222,16.402669270833332,0)" xlink:href="#B"/><use transform="matrix(0.004448784722222222,0,0,0.004448784722222222,21.870225694444443,0)" xlink:href="#x"/><use transform="matrix(0.004448784722222222,0,0,0.004448784722222222,27.337782118055554,0)" xlink:href="#z"/><use transform="matrix(0.004448784722222222,0,0,0.004448784722222222,32.805338541666664,0)" xlink:href="#O"/><use transform="matrix(0.004448784722222222,0,0,0.004448784722222222,38.27289496527777,0)" xlink:href="#E"/><use transform="matrix(0.004448784722222222,0,0,0.004448784722222222,43.740451388888886,0)" xlink:href="#P"/><use transform="matrix(0.004448784722222222,0,0,0.004448784722222222,49.2080078125,0)" xlink:href="#y"/><use transform="matrix(0.004448784722222222,0,0,0.004448784722222222,54.675564236111114,0)" xlink:href="#Q"/></g><path fill="#333" d="M687-608v428H540v-428H116v-146h424v-428h147v428h424v146H687" id="R"/><use transform="matrix(0.0087890625,0,0,0.0087890625,0,0)" xlink:href="#R" id="e"/><path fill="#333" d="M614-1226c-167 1-283 53-283 213 0 183 186 193 334 234 230 63 463 120 463 409 0 286-219 387-518 390C309 23 131-98 79-338l185-37c34 165 149 248 351 246 184-2 324-58 324-238 0-203-207-221-372-266-210-57-422-111-422-377 0-267 201-356 470-360 279-5 430 101 480 324l-188 33c-28-141-121-215-293-213" id="S"/><path fill="#333" d="M875 0v-623H353V0H162v-1349h191v566h522v-566h191V0H875" id="T"/><path fill="#333" d="M1034 0L896-382H333L196 0H0l510-1349h217L1228 0h-194zM847-531c-77-225-157-447-231-674-69 231-154 451-232 674h463" id="U"/><path fill="#333" d="M334-464v-160h560v160H334" id="V"/><path fill="#333" d="M672-881c271 0 424 163 424 435 0 291-160 466-455 466-367 0-490-287-490-662 0-324 85-568 293-680 129-70 351-59 460 16 73 50 125 123 153 223l-172 31c-31-108-107-172-232-172-259 0-316 252-323 529 59-113 178-186 342-186zm-37 756c186 0 278-124 278-313s-96-304-284-304c-163 0-281 93-281 261 0 157 65 270 168 327 35 19 75 29 119 29" id="W"/><g id="f"><use transform="matrix(0.0087890625,0,0,0.0087890625,0,0)" xlink:href="#S"/><use transform="matrix(0.0087890625,0,0,0.0087890625,10.8017578125,0)" xlink:href="#T"/><use transform="matrix(0.0087890625,0,0,0.0087890625,21.603515625,0)" xlink:href="#U"/><use transform="matrix(0.0087890625,0,0,0.0087890625,32.4052734375,0)" xlink:href="#V"/><use transform="matrix(0.0087890625,0,0,0.0087890625,43.20703125,0)" xlink:href="#K"/><use transform="matrix(0.0087890625,0,0,0.0087890625,54.0087890625,0)" xlink:href="#M"/><use transform="matrix(0.0087890625,0,0,0.0087890625,64.810546875,0)" xlink:href="#W"/></g><path fill="#333" d="M162 0v-1349h919v156H353v422h668v154H353v461h769V0H162" id="X"/><path fill="#333" d="M655-135c108 0 195-33 260-74v-336H622v-160h479v572C981-54 839 20 639 20c-388 0-526-306-526-701 0-406 129-689 529-689 261 0 392 137 461 331l-171 56c-47-131-122-231-288-231-281 0-330 245-330 533 0 179 28 314 84 407s142 139 257 139" id="Y"/><path fill="#333" d="M650-1214c-281 0-336 244-336 533 0 295 60 546 347 546 188 0 263-142 322-282l159 65C1058-155 935 20 659 20c-401 0-546-295-546-701 0-407 135-689 536-689 264 0 391 146 466 335l-168 65c-47-129-127-244-297-244" id="Z"/><g id="g"><use transform="matrix(0.0087890625,0,0,0.0087890625,0,0)" xlink:href="#U"/><use transform="matrix(0.0087890625,0,0,0.0087890625,10.8017578125,0)" xlink:href="#X"/><use transform="matrix(0.0087890625,0,0,0.0087890625,21.603515625,0)" xlink:href="#S"/><use transform="matrix(0.0087890625,0,0,0.0087890625,32.4052734375,0)" xlink:href="#V"/><use transform="matrix(0.0087890625,0,0,0.0087890625,43.20703125,0)" xlink:href="#Y"/><use transform="matrix(0.0087890625,0,0,0.0087890625,54.0087890625,0)" xlink:href="#Z"/><use transform="matrix(0.0087890625,0,0,0.0087890625,64.810546875,0)" xlink:href="#w"/></g><path fill="#333" d="M168 279c222 39 310-114 368-290L66-1082h192c120 299 249 590 362 896 115-301 235-597 351-896h190L705 0c-65 164-130 320-275 396-67 36-177 35-262 18V279" id="aa"/><g id="h"><use transform="matrix(0.0087890625,0,0,0.0087890625,0,0)" xlink:href="#H"/><use transform="matrix(0.0087890625,0,0,0.0087890625,10.8017578125,0)" xlink:href="#A"/><use transform="matrix(0.0087890625,0,0,0.0087890625,21.603515625,0)" xlink:href="#aa"/></g><g id="i"><use transform="matrix(0.0087890625,0,0,0.0087890625,0,0)" xlink:href="#S"/><use transform="matrix(0.0087890625,0,0,0.0087890625,10.8017578125,0)" xlink:href="#T"/><use transform="matrix(0.0087890625,0,0,0.0087890625,21.603515625,0)" xlink:href="#U"/><use transform="matrix(0.0087890625,0,0,0.0087890625,32.4052734375,0)" xlink:href="#V"/><use transform="matrix(0.0087890625,0,0,0.0087890625,43.20703125,0)" xlink:href="#K"/><use transform="matrix(0.0087890625,0,0,0.0087890625,54.0087890625,0)" xlink:href="#M"/><use transform="matrix(0.0087890625,0,0,0.0087890625,64.810546875,0)" xlink:href="#W"/></g><path fill="#333" d="M736-142h380V0H134v-142h422v-1200H267v-142h469v1342" id="ab"/><g id="j"><use transform="matrix(0.006618923611111111,0,0,0.006618923611111111,0,0)" xlink:href="#S"/><use transform="matrix(0.006618923611111111,0,0,0.006618923611111111,8.134657118055555,0)" xlink:href="#x"/><use transform="matrix(0.006618923611111111,0,0,0.006618923611111111,16.26931423611111,0)" xlink:href="#ab"/><use transform="matrix(0.006618923611111111,0,0,0.006618923611111111,24.403971354166664,0)" xlink:href="#z"/></g><g id="k"><use transform="matrix(0.0087890625,0,0,0.0087890625,0,0)" xlink:href="#U"/><use transform="matrix(0.0087890625,0,0,0.0087890625,10.8017578125,0)" xlink:href="#X"/><use transform="matrix(0.0087890625,0,0,0.0087890625,21.603515625,0)" xlink:href="#S"/><use transform="matrix(0.0087890625,0,0,0.0087890625,32.4052734375,0)" xlink:href="#V"/><use transform="matrix(0.0087890625,0,0,0.0087890625,43.20703125,0)" xlink:href="#Y"/><use transform="matrix(0.0087890625,0,0,0.0087890625,54.0087890625,0)" xlink:href="#Z"/><use transform="matrix(0.0087890625,0,0,0.0087890625,64.810546875,0)" xlink:href="#w"/></g><path fill="#333" d="M631 20c-350 0-501-215-501-562 0-355 162-560 502-560 250 0 399 118 446 323l-192 14c-23-124-109-196-262-196-242 0-305 171-305 415 1 245 61 427 304 427 151 0 248-77 267-215l190 12C1039-107 883 20 631 20" id="ac"/><path fill="#333" d="M698-1104c312 3 392 244 392 558 0 315-82 566-392 566-169 0-277-65-331-184h-5c8 188 2 394 4 589H185V-858c0-76-1-156-6-224h175c6 52 9 120 10 178h4c58-122 150-202 330-200zm-49 991c225 0 255-203 255-433 0-225-32-419-253-419-236 0-285 192-285 441 0 237 53 411 283 411" id="ad"/><g id="l"><use transform="matrix(0.0087890625,0,0,0.0087890625,0,0)" xlink:href="#X"/><use transform="matrix(0.0087890625,0,0,0.0087890625,10.8017578125,0)" xlink:href="#P"/><use transform="matrix(0.0087890625,0,0,0.0087890625,21.603515625,0)" xlink:href="#ac"/><use transform="matrix(0.0087890625,0,0,0.0087890625,32.4052734375,0)" xlink:href="#B"/><use transform="matrix(0.0087890625,0,0,0.0087890625,43.20703125,0)" xlink:href="#aa"/><use transform="matrix(0.0087890625,0,0,0.0087890625,54.0087890625,0)" xlink:href="#ad"/><use transform="matrix(0.0087890625,0,0,0.0087890625,64.810546875,0)" xlink:href="#z"/><use transform="matrix(0.0087890625,0,0,0.0087890625,75.6123046875,0)" xlink:href="#O"/><use transform="matrix(0.0087890625,0,0,0.0087890625,86.4140625,0)" xlink:href="#E"/><use transform="matrix(0.0087890625,0,0,0.0087890625,97.2158203125,0)" xlink:href="#P"/></g><path fill="#333" d="M202-1349h823v156H709v1037h316V0H202v-156h316v-1037H202v-156" id="ae"/><path fill="#333" d="M147 0v-137l681-806H187v-139h844v137L349-139h719V0H147" id="af"/><g id="m"><use transform="matrix(0.0087890625,0,0,0.0087890625,0,0)" xlink:href="#ae"/><use transform="matrix(0.0087890625,0,0,0.0087890625,10.8017578125,0)" xlink:href="#P"/><use transform="matrix(0.0087890625,0,0,0.0087890625,21.603515625,0)" xlink:href="#O"/><use transform="matrix(0.0087890625,0,0,0.0087890625,32.4052734375,0)" xlink:href="#z"/><use transform="matrix(0.0087890625,0,0,0.0087890625,43.20703125,0)" xlink:href="#O"/><use transform="matrix(0.0087890625,0,0,0.0087890625,54.0087890625,0)" xlink:href="#x"/><use transform="matrix(0.0087890625,0,0,0.0087890625,64.810546875,0)" xlink:href="#ab"/><use transform="matrix(0.0087890625,0,0,0.0087890625,75.6123046875,0)" xlink:href="#O"/><use transform="matrix(0.0087890625,0,0,0.0087890625,86.4140625,0)" xlink:href="#af"/><use transform="matrix(0.0087890625,0,0,0.0087890625,97.2158203125,0)" xlink:href="#x"/><use transform="matrix(0.0087890625,0,0,0.0087890625,108.017578125,0)" xlink:href="#z"/><use transform="matrix(0.0087890625,0,0,0.0087890625,118.8193359375,0)" xlink:href="#O"/><use transform="matrix(0.0087890625,0,0,0.0087890625,129.62109375,0)" xlink:href="#E"/><use transform="matrix(0.0087890625,0,0,0.0087890625,140.4228515625,0)" xlink:href="#P"/></g><path fill="#333" d="M713 0H515L10-1349h201C345-955 498-579 615-168c116-411 269-787 402-1181h201" id="ag"/><g id="n"><use transform="matrix(0.0087890625,0,0,0.0087890625,0,0)" xlink:href="#ag"/><use transform="matrix(0.0087890625,0,0,0.0087890625,10.8017578125,0)" xlink:href="#A"/><use transform="matrix(0.0087890625,0,0,0.0087890625,21.603515625,0)" xlink:href="#ac"/><use transform="matrix(0.0087890625,0,0,0.0087890625,32.4052734375,0)" xlink:href="#z"/><use transform="matrix(0.0087890625,0,0,0.0087890625,43.20703125,0)" xlink:href="#E"/><use transform="matrix(0.0087890625,0,0,0.0087890625,54.0087890625,0)" xlink:href="#B"/></g><g id="o"><use transform="matrix(0.0087890625,0,0,0.0087890625,0,0)" xlink:href="#L"/><use transform="matrix(0.0087890625,0,0,0.0087890625,10.8017578125,0)" xlink:href="#ae"/><use transform="matrix(0.0087890625,0,0,0.0087890625,21.603515625,0)" xlink:href="#ag"/><use transform="matrix(0.0087890625,0,0,0.0087890625,32.4052734375,0)" xlink:href="#Q"/></g><path fill="#333" d="M604-135c236 0 291-142 291-376v-838h190v859c5 340-142 510-480 510-326 0-463-164-463-492v-877h191v851c-3 222 46 363 271 363" id="ah"/><g id="p"><use transform="matrix(0.0087890625,0,0,0.0087890625,0,0)" xlink:href="#ah"/><use transform="matrix(0.0087890625,0,0,0.0087890625,10.8017578125,0)" xlink:href="#y"/><use transform="matrix(0.0087890625,0,0,0.0087890625,21.603515625,0)" xlink:href="#A"/><use transform="matrix(0.0087890625,0,0,0.0087890625,32.4052734375,0)" xlink:href="#B"/></g><g id="q"><use transform="matrix(0.0087890625,0,0,0.0087890625,0,0)" xlink:href="#I"/><use transform="matrix(0.0087890625,0,0,0.0087890625,10.8017578125,0)" xlink:href="#x"/><use transform="matrix(0.0087890625,0,0,0.0087890625,21.603515625,0)" xlink:href="#z"/><use transform="matrix(0.0087890625,0,0,0.0087890625,32.4052734375,0)" xlink:href="#x"/></g><g id="s"><use transform="matrix(0.0087890625,0,0,0.0087890625,0,0)" xlink:href="#S"/><use transform="matrix(0.0087890625,0,0,0.0087890625,10.8017578125,0)" xlink:href="#x"/><use transform="matrix(0.0087890625,0,0,0.0087890625,21.603515625,0)" xlink:href="#ab"/><use transform="matrix(0.0087890625,0,0,0.0087890625,32.4052734375,0)" xlink:href="#z"/></g><g id="t"><use transform="matrix(0.0087890625,0,0,0.0087890625,0,0)" xlink:href="#X"/><use transform="matrix(0.0087890625,0,0,0.0087890625,10.8017578125,0)" xlink:href="#P"/><use transform="matrix(0.0087890625,0,0,0.0087890625,21.603515625,0)" xlink:href="#ac"/><use transform="matrix(0.0087890625,0,0,0.0087890625,32.4052734375,0)" xlink:href="#B"/><use transform="matrix(0.0087890625,0,0,0.0087890625,43.20703125,0)" xlink:href="#aa"/><use transform="matrix(0.0087890625,0,0,0.0087890625,54.0087890625,0)" xlink:href="#ad"/><use transform="matrix(0.0087890625,0,0,0.0087890625,64.810546875,0)" xlink:href="#z"/><use transform="matrix(0.0087890625,0,0,0.0087890625,75.6123046875,0)" xlink:href="#O"/><use transform="matrix(0.0087890625,0,0,0.0087890625,86.4140625,0)" xlink:href="#E"/><use transform="matrix(0.0087890625,0,0,0.0087890625,97.2158203125,0)" xlink:href="#P"/></g><path fill="#333" d="M914 0L548-499l-132 98V0H236v-1484h180v927l475-525h211L663-617 1125 0H914" id="ai"/><path fill="#333" d="M1048-32c-2 300-135 456-433 456-222-1-358-88-400-267l184-25c22 99 100 157 222 156 184-2 248-125 248-315 0-64 3-133-2-194C807-100 706-13 524-12c-306 0-381-228-381-537 0-318 85-550 400-550 164 0 271 83 325 202h3c1-60 3-134 12-185h171c-13 339-4 702-6 1050zM585-145c210-8 284-178 284-406 0-192-52-331-177-392-33-16-69-22-104-22-223 2-259 184-259 414 0 229 31 415 256 406" id="aj"/><g id="u"><use transform="matrix(0.0087890625,0,0,0.0087890625,0,0)" xlink:href="#C"/><use transform="matrix(0.0087890625,0,0,0.0087890625,10.8017578125,0)" xlink:href="#x"/><use transform="matrix(0.0087890625,0,0,0.0087890625,21.603515625,0)" xlink:href="#ac"/><use transform="matrix(0.0087890625,0,0,0.0087890625,32.4052734375,0)" xlink:href="#ai"/><use transform="matrix(0.0087890625,0,0,0.0087890625,43.20703125,0)" xlink:href="#x"/><use transform="matrix(0.0087890625,0,0,0.0087890625,54.0087890625,0)" xlink:href="#aj"/><use transform="matrix(0.0087890625,0,0,0.0087890625,64.810546875,0)" xlink:href="#A"/></g><path fill="#333" d="M365-904c58-129 161-200 334-200 130 0 228 46 293 138s98 233 98 420c0 189-34 331-102 425S824 20 698 20c-170 0-275-64-336-184 0 55-3 116-9 164H179c5-68 6-147 6-223v-1261h180c-2 193 4 394-4 580h4zm283 791c221 0 256-197 256-427 0-229-34-425-254-425-236 0-285 195-285 441 0 237 53 411 283 411" id="ak"/><g id="v"><use transform="matrix(0.0087890625,0,0,0.0087890625,0,0)" xlink:href="#I"/><use transform="matrix(0.0087890625,0,0,0.0087890625,10.8017578125,0)" xlink:href="#x"/><use transform="matrix(0.0087890625,0,0,0.0087890625,21.603515625,0)" xlink:href="#z"/><use transform="matrix(0.0087890625,0,0,0.0087890625,32.4052734375,0)" xlink:href="#x"/><use transform="matrix(0.0087890625,0,0,0.0087890625,43.20703125,0)" xlink:href="#ak"/><use transform="matrix(0.0087890625,0,0,0.0087890625,54.0087890625,0)" xlink:href="#x"/><use transform="matrix(0.0087890625,0,0,0.0087890625,64.810546875,0)" xlink:href="#y"/><use transform="matrix(0.0087890625,0,0,0.0087890625,75.6123046875,0)" xlink:href="#A"/></g></defs></g></svg>