<?xml version="1.0" encoding="UTF-8" standalone="no"?>
<!-- Created with Inkscape (http://www.inkscape.org/) -->

<svg
   version="1.1"
   id="svg1"
   width="900"
   height="900"
   viewBox="0 0 900 900"
   xmlns="http://www.w3.org/2000/svg"
   xmlns:svg="http://www.w3.org/2000/svg">
  <defs
     id="defs1" />
  <g
     id="g1"
     transform="matrix(1.2714303,0,0,1.2714285,-137.25446,-113.65052)"
     style="fill:#b3b3b3">
    <g
       id="g3"
       transform="translate(-15.999996,-40.000003)"
       style="fill:#b3b3b3;fill-opacity:1">
      <path
         style="fill:#b3b3b3;fill-opacity:1;stroke-width:0.790359"
         d="m 455.027,781.09021 c -1.3041,-0.17677 -6.28336,-0.71271 -11.06503,-1.19099 -37.51938,-3.75285 -77.26005,-16.93331 -113.09304,-37.50865 -10.31458,-5.92264 -28.75658,-17.96777 -28.76773,-18.78916 -0.008,-0.35636 21.09398,-30.76543 46.88608,-67.5757 62.88824,-89.75358 74.98785,-106.84091 75.65452,-106.84091 0.59877,0 51.5386,56.63786 51.98832,57.80368 0.14495,0.3756 0.57277,0.6829 0.95072,0.6829 0.70785,0 21.73938,-23.00217 41.73736,-45.64821 6.23548,-7.0611 11.5704,-12.83232 11.85541,-12.82493 0.285,0.007 2.59372,2.9416 5.13045,6.52046 13.29226,18.753 56.46223,80.00972 85.34748,121.1052 l 32.77343,46.62728 -4.06553,2.91538 c -8.24226,5.91045 -26.51188,16.9327 -37.4612,22.6007 -31.27783,16.19124 -59.75724,25.3162 -94.64252,30.32401 -8.72983,1.25317 -16.31917,1.64452 -35.96134,1.85436 -13.69297,0.14628 -25.96329,0.12134 -27.26738,-0.0554 z M 256.98585,682.5579 c -17.14036,-19.03563 -29.48767,-36.94964 -41.5491,-60.28141 l -6.54584,-12.66228 6.42578,-7.09669 c 3.53417,-3.90319 16.60489,-17.94439 29.04601,-31.20266 12.44121,-13.25828 27.05178,-28.90739 32.46804,-34.7758 5.41625,-5.86842 15.00789,-16.00478 21.31479,-22.52524 6.30691,-6.52046 17.7208,-18.61295 25.36413,-26.87221 7.6434,-8.25925 14.50665,-15.52104 15.25164,-16.13731 1.66173,-1.37448 -0.27149,-3.35614 20.75412,21.27465 22.15147,25.94985 27.93587,32.89197 27.93587,33.52733 0,0.8207 -11.69328,16.1168 -89.77143,117.43126 -9.54754,12.38887 -21.2036,27.59341 -25.90236,33.78785 -4.69877,6.19444 -8.78817,11.26261 -9.08763,11.26261 -0.29947,0 -2.86632,-2.57854 -5.70402,-5.7301 z m 413.00042,-24.10595 c -12.56979,-16.40983 -37.81086,-49.21962 -56.09139,-72.91063 -50.86095,-65.91445 -45.82328,-58.99289 -44.44055,-61.05962 2.7318,-4.08308 45.6675,-54.1813 46.51667,-54.27658 0.45034,-0.0505 26.99187,27.92056 59.94383,63.1725 6.70462,7.17251 20.59392,21.93247 30.86527,32.7999 16.39007,17.34131 34.56596,36.96006 38.99015,42.08519 1.4556,1.68623 1.41016,1.82207 -4.12639,12.34646 -12.54884,23.85392 -25.0792,42.23873 -41.14443,60.36801 -3.56318,4.02095 -6.74414,7.31082 -7.06874,7.31082 -0.32468,0 -10.87471,-13.42622 -23.44442,-29.83605 z M 205.08541,600.91626 c -0.44584,-0.84901 -2.14511,-5.10027 -3.77602,-9.44725 C 190.74,563.29772 184.38955,534.58862 182.33058,505.66954 l -0.53784,-7.55392 22.41024,-19.75775 c 12.32565,-10.86676 28.10082,-24.75927 35.05598,-30.87224 6.95516,-6.11297 20.11464,-17.73865 29.24329,-25.83483 9.12864,-8.09619 17.01098,-14.63374 17.51633,-14.5279 0.85019,0.17809 5.22799,5.19535 37.66322,43.16488 6.4404,7.5393 11.54651,14.13339 11.34695,14.65354 -0.34697,0.90409 -104.53622,112.06671 -121.14514,129.25333 -7.21772,7.46878 -8.06561,8.11652 -8.7982,6.72161 z m 537.63231,-5.86458 c -6.80001,-7.47683 -27.44308,-29.48637 -59.68183,-63.63269 -35.77055,-37.88696 -46.86221,-49.68871 -54.81978,-58.32911 l -7.80314,-8.47272 3.71912,-4.54495 c 11.88399,-14.52285 45.20585,-53.09591 45.8726,-53.10156 0.43469,-0.004 13.82844,11.45355 29.76381,25.4605 15.93546,14.00695 39.15139,34.35872 51.59101,45.22615 l 22.61755,19.75898 -0.46189,8.29877 c -0.89713,16.11943 -4.12543,35.99203 -8.79495,54.1396 -4.30082,16.71444 -13.12858,41.5286 -14.93005,41.96684 -0.41225,0.10031 -3.59487,-2.94612 -7.07245,-6.76981 z M 458.63056,575.042 C 448.00624,563.64607 417.06257,530.49281 389.86679,501.36808 362.67093,472.24334 315.03662,421.07983 284.01265,387.67137 l -56.40714,-60.74264 5.99709,-8.81697 c 10.11114,-14.86545 28.89916,-37.27963 36.48203,-43.5233 l 3.16317,-2.60448 13.82955,10.56376 c 7.60633,5.81007 22.53147,17.23173 33.1671,25.38147 69.70912,53.4158 88.04,67.3759 88.46355,67.37058 0.5742,-0.007 2.13697,-2.9906 21.52575,-41.09266 24.84359,-48.82161 26.58412,-51.95416 31.90648,-57.42399 6.37772,-6.55445 9.26609,-7.38636 25.63253,-7.38273 12.16394,0.002 32.40268,1.52837 43.12872,3.25119 14.61137,2.34691 20.17574,7.45096 20.14207,18.47574 -0.0166,5.45115 -0.72089,6.40522 -3.63723,4.92753 -3.66853,-1.8588 -7.71873,-2.26424 -13.45887,-1.34725 -9.89269,1.58036 -20.0387,8.09261 -20.0387,12.86188 0,1.51172 31.55123,65.55338 33.06548,67.11527 0.60288,0.62184 13.72735,-9.19565 69.28604,-51.82796 20.43078,-15.67732 43.87765,-33.65615 52.10411,-39.95294 l 14.95723,-11.44872 7.48991,7.86281 c 12.06531,12.66598 32.49657,38.33039 36.56209,45.92693 1.05916,1.97902 4.37148,-1.70089 -80.62208,89.56846 -114.58397,123.04471 -149.01171,160.06501 -158.13427,170.04241 -5.43372,5.94292 -10.05732,10.82798 -10.27467,10.8557 -0.21735,0.0277 -9.08779,-9.27354 -19.71203,-20.66946 z m 307.40276,-92.76909 c -4.12963,-3.75314 -26.35848,-23.36472 -49.39745,-43.5813 -23.03896,-20.21657 -41.88903,-37.04038 -41.88903,-37.38622 0,-0.6778 9.89158,-12.44482 38.99434,-46.38773 10.17351,-11.86553 18.58467,-21.46839 18.69129,-21.3397 0.10669,0.1287 2.56479,4.56608 5.46248,9.86087 22.3267,40.79684 34.39722,84.77097 35.81117,130.46427 0.25893,8.36792 0.32784,15.20975 0.15318,15.20405 -0.17467,-0.006 -3.69636,-3.08111 -7.82598,-6.83424 z m -584.07539,-1.6953 c 0,-33.20209 7.2404,-70.01648 20.31562,-103.29591 3.87434,-9.86115 15.75723,-34.42443 19.99245,-41.32679 l 1.59487,-2.59918 21.1527,24.72924 c 11.63392,13.60108 24.65446,28.91539 28.93441,34.03179 l 7.7818,9.30255 -3.83048,3.3432 c -2.10678,1.83875 -13.26317,11.67641 -24.79206,21.86145 -34.72909,30.68111 -68.85719,60.47807 -70.03807,61.14969 -0.9225,0.5247 -1.11124,-0.69752 -1.11124,-7.19604 z"
         id="path1" />
      <path
         id="path3"
         style="fill:#b3b3b3;fill-opacity:1;stroke:#000000;stroke-width:1.34675;stroke-opacity:0"
         d="m 477.88485,133.99351 a 349.32663,349.32663 0 0 0 -349.3261,349.32618 349.32663,349.32663 0 0 0 349.3261,349.32813 349.32663,349.32663 0 0 0 349.3262,-349.32813 349.32663,349.32663 0 0 0 -349.3262,-349.32618 z m 0,37.46486 a 311.86264,311.86264 0 0 1 311.8633,311.86132 311.86264,311.86264 0 0 1 -311.8633,311.86329 311.86264,311.86264 0 0 1 -311.8632,-311.86329 311.86264,311.86264 0 0 1 311.8632,-311.86132 z" />
    </g>
  </g>
</svg>
