<?xml version="1.0" encoding="UTF-8" standalone="no"?>
<!-- Created with Inkscape (http://www.inkscape.org/) -->

<svg
   version="1.1"
   id="svg1"
   width="900"
   height="900"
   viewBox="0 0 900 900"
   sodipodi:docname="ShieldLogoWhite.svg"
   inkscape:version="1.3.2 (091e20e, 2023-11-25, custom)"
   xmlns:inkscape="http://www.inkscape.org/namespaces/inkscape"
   xmlns:sodipodi="http://sodipodi.sourceforge.net/DTD/sodipodi-0.dtd"
   xmlns="http://www.w3.org/2000/svg"
   xmlns:svg="http://www.w3.org/2000/svg">
  <sodipodi:namedview
     id="namedview1"
     pagecolor="#505050"
     bordercolor="#eeeeee"
     borderopacity="1"
     inkscape:showpageshadow="0"
     inkscape:pageopacity="0"
     inkscape:pagecheckerboard="0"
     inkscape:deskcolor="#505050"
     inkscape:zoom="0.39833682"
     inkscape:cx="327.61219"
     inkscape:cy="279.91387"
     inkscape:window-width="1366"
     inkscape:window-height="745"
     inkscape:window-x="-8"
     inkscape:window-y="-8"
     inkscape:window-maximized="1"
     inkscape:current-layer="g3" />
  <defs
     id="defs1" />
  <g
     id="g3"
     transform="matrix(1.2714303,0,0,1.2714285,-157.59734,-164.50766)"
     style="fill:#ffffff;fill-opacity:1">
    <ellipse
       style="fill:#000000;stroke:#000000;stroke-width:0.883726"
       id="path2"
       cx="477.88489"
       cy="483.32065"
       rx="353.49023"
       ry="353.49072" />
    <path
       style="fill:#ffffff;fill-opacity:1;stroke-width:0.944751"
       d="m 450.56183,837.07311 c -1.55885,-0.21129 -7.51078,-0.85194 -13.22652,-1.42364 -44.84859,-4.48595 -92.35236,-20.24113 -135.18513,-44.83576 -12.32948,-7.07959 -34.37402,-21.47767 -34.38735,-22.45951 -0.0101,-0.42597 25.21457,-36.77528 56.04502,-80.77624 75.1731,-107.28643 89.6363,-127.71167 90.4332,-127.71167 0.71574,0 61.60637,67.70174 62.14394,69.0953 0.17327,0.44897 0.68467,0.8163 1.13644,0.8163 0.84613,0 25.98605,-27.49551 49.89052,-54.56533 7.45355,-8.44045 13.83062,-15.33905 14.1713,-15.33021 0.34068,0.008 3.10039,3.51622 6.13266,7.79419 15.88882,22.41629 67.49181,95.63918 102.01962,144.76243 l 39.17554,55.73566 -4.85971,3.48488 c -9.85233,7.06502 -31.69082,20.2404 -44.77902,27.01561 -37.38779,19.35412 -71.4305,30.26158 -113.13042,36.24764 -10.43515,1.49797 -19.50703,1.96576 -42.98618,2.21659 -16.36782,0.17486 -31.03507,0.14505 -32.59391,-0.0663 z M 213.83445,719.29307 c -20.48863,-22.75413 -35.24791,-44.16754 -49.66549,-72.05704 l -7.82453,-15.13579 7.68103,-8.48299 c 4.22454,-4.66566 19.84855,-21.44973 34.71998,-37.29793 14.87153,-15.84821 32.33619,-34.55428 38.81049,-41.56905 6.47429,-7.01478 17.9396,-19.13122 25.47852,-26.92542 7.53893,-7.7942 21.18245,-22.24888 30.31887,-32.12154 9.13649,-9.87266 17.34044,-18.553 18.23095,-19.28965 1.98635,-1.64297 -0.32452,-4.01174 24.80833,25.43054 26.47863,31.019 33.39298,39.31723 33.39298,40.0767 0,0.98102 -13.97749,19.26512 -107.30777,140.3708 -11.4126,14.80896 -25.34561,32.98363 -30.96224,40.38812 -5.61665,7.40449 -10.50489,13.46269 -10.86285,13.46269 -0.35797,0 -3.42624,-3.08224 -6.81827,-6.84944 z m 493.67774,-28.81491 c -15.02523,-19.6154 -45.19701,-58.8344 -67.04854,-87.15331 -60.79635,-78.79047 -54.77459,-70.51683 -53.12175,-72.98728 3.26543,-4.88069 54.58838,-64.76531 55.60344,-64.8792 0.53831,-0.0604 32.26458,33.37468 71.65352,75.51289 8.01433,8.57361 24.61682,26.21685 36.89462,39.20717 19.59179,20.72885 41.31824,44.18 46.60666,50.3063 1.73995,2.01563 1.68563,2.178 -4.93245,14.75827 -15.00019,28.51365 -29.97828,50.48983 -49.18177,72.16057 -4.25923,4.80641 -8.06157,8.73894 -8.44957,8.73894 -0.38812,0 -12.99903,-16.04896 -28.02416,-35.66435 z M 151.79555,621.70319 c -0.53294,-1.01486 -2.56415,-6.09657 -4.51365,-11.29271 -12.63405,-33.6744 -20.22503,-67.99166 -22.68621,-102.55992 l -0.6429,-9.02953 26.78796,-23.61732 c 14.73339,-12.98952 33.59015,-29.59585 41.90397,-36.90295 8.3138,-7.30712 24.04391,-21.2038 34.95579,-30.88152 10.91187,-9.67775 20.33398,-17.49237 20.93805,-17.36585 1.01627,0.21288 6.24925,6.21023 45.02052,51.5969 7.6985,9.01206 13.80205,16.89427 13.56351,17.51602 -0.41474,1.0807 -124.95678,133.95832 -144.81016,154.50225 -8.62766,8.92776 -9.64118,9.70203 -10.51688,8.03463 z M 794.45131,614.693 c -8.12835,-8.93739 -32.80393,-35.24637 -71.34033,-76.06298 -42.75813,-45.28796 -56.01648,-59.39512 -65.52852,-69.72337 l -9.32744,-10.12782 4.44563,-5.43279 c 14.20547,-17.3598 54.03656,-63.46789 54.83356,-63.47464 0.5196,-0.005 16.52975,13.69093 35.578,30.43406 19.04836,16.74314 46.79939,41.07051 61.66902,54.06083 l 27.03577,23.61879 -0.55212,9.91988 c -1.07238,19.26828 -4.93131,43.02288 -10.513,64.71546 -5.14096,19.97952 -15.69318,49.64099 -17.84655,50.16483 -0.49278,0.11991 -4.29711,-3.52162 -8.45402,-8.09225 z M 454.86932,590.77454 C 442.1696,577.15249 405.18126,537.52292 372.67294,502.70884 340.16451,467.89474 283.22511,406.73672 246.14078,366.80211 l -67.42595,-72.60837 7.16858,-10.53932 c 12.0863,-17.76933 34.54445,-44.56199 43.6086,-52.02533 l 3.78107,-3.11325 16.53107,12.62733 c 9.09219,6.94504 26.93288,20.59785 39.64612,30.33959 83.3264,63.85028 105.23811,80.53741 105.74441,80.53105 0.68636,-0.008 2.55441,-3.57479 25.73068,-49.11988 29.69664,-58.35864 31.77718,-62.10311 38.13923,-68.64144 7.62357,-7.83483 11.07617,-8.82925 30.6397,-8.82491 14.5401,0.002 38.73236,1.82693 51.55367,3.88629 17.46562,2.80537 24.11696,8.90647 24.07671,22.08488 -0.0198,6.516 -0.86171,7.65644 -4.34774,5.89009 -4.38515,-2.22191 -9.22654,-2.70655 -16.08799,-1.61042 -11.82516,1.88907 -23.95314,9.67345 -23.95314,15.37437 0,1.80703 37.71458,78.35887 39.52464,80.22586 0.72064,0.74331 16.4089,-10.99197 82.82068,-61.95226 24.42181,-18.7398 52.44889,-40.23069 62.28235,-47.75752 l 17.87904,-13.68517 8.95302,9.39877 c 14.42221,15.14021 38.84459,45.81801 43.70429,54.89849 1.26606,2.36562 5.22542,-2.03314 -96.37114,107.06516 -136.96731,147.0808 -178.12032,191.33281 -189.02492,203.25924 -6.49517,7.10384 -12.02197,12.94317 -12.28177,12.9763 -0.25981,0.0331 -10.86304,-11.08507 -23.56267,-24.70712 z M 822.32149,479.88353 c -4.93633,-4.48629 -31.50746,-27.92889 -59.04696,-52.09466 -27.5395,-24.16577 -50.07182,-44.27601 -50.07182,-44.68941 0,-0.8102 11.82384,-14.87584 46.61167,-55.44932 12.16084,-14.18339 22.21508,-25.66211 22.34252,-25.50828 0.12753,0.15383 3.06581,5.45804 6.52954,11.78713 26.6881,48.76628 41.11652,101.33051 42.80669,155.94974 0.30951,10.00254 0.39188,18.18089 0.18309,18.17407 -0.20878,-0.007 -4.41841,-3.68299 -9.35473,-8.16927 z m -698.17124,-2.02647 c 0,-39.68793 8.65477,-83.6938 24.28416,-123.47418 4.63117,-11.78747 18.83531,-41.14905 23.89787,-49.39975 l 1.90641,-3.10692 25.28476,29.55996 c 13.90654,16.25797 29.47058,34.56385 34.58658,40.67971 l 9.30194,11.11975 -4.57875,3.99628 c -2.51832,2.19793 -15.85405,13.95733 -29.63504,26.13196 -41.51322,36.67449 -82.30806,72.29212 -83.71962,73.09494 -1.1027,0.6272 -1.32831,-0.83378 -1.32831,-8.60175 z"
       id="path1" />
  </g>
</svg>
